<svg xmlns="http://www.w3.org/2000/svg" viewBox="0 0 64 64" width="64" height="64" role="img" aria-labelledby="title desc">
  <title id="title">Saleem</title>
  <desc id="desc">A speech bubble above a bridge, representing language and connection.</desc>
  <rect x="2" y="2" width="60" height="60" rx="17" fill="#0f766e"/>
  <path d="M15 17.5c0-4.7 3.8-8.5 8.5-8.5h17c4.7 0 8.5 3.8 8.5 8.5v9c0 4.7-3.8 8.5-8.5 8.5H29l-8.5 7v-7.5c-3.2-1.2-5.5-4.3-5.5-8z" fill="#fbf7ef"/>
  <circle cx="27" cy="22" r="2.1" fill="#0f766e"/>
  <circle cx="32" cy="22" r="2.1" fill="#0f766e"/>
  <circle cx="37" cy="22" r="2.1" fill="#0f766e"/>
  <path d="M13 49c5.8-5.3 11.8-7.9 19-7.9S45.2 43.7 51 49" fill="none" stroke="#d6a13b" stroke-width="3.5" stroke-linecap="round"/>
  <path d="M18 49v-5M46 49v-5" fill="none" stroke="#d6a13b" stroke-width="3.5" stroke-linecap="round"/>
</svg>
